<?xml version="1.0" encoding="UTF-8" standalone="no"?>
<!-- Created with Inkscape (http://www.inkscape.org/) -->

<svg
   width="10cm"
   height="10cm"
   viewBox="0 0 100 100"
   version="1.1"
   id="svg1"
   inkscape:version="1.4 (86a8ad7, 2024-10-11)"
   sodipodi:docname="oatnet-magnifying-glass.svg"
   xmlns:inkscape="http://www.inkscape.org/namespaces/inkscape"
   xmlns:sodipodi="http://sodipodi.sourceforge.net/DTD/sodipodi-0.dtd"
   xmlns="http://www.w3.org/2000/svg"
   xmlns:svg="http://www.w3.org/2000/svg">
  <sodipodi:namedview
     id="namedview1"
     pagecolor="#ffffff"
     bordercolor="#000000"
     borderopacity="0.25"
     inkscape:showpageshadow="2"
     inkscape:pageopacity="0.0"
     inkscape:pagecheckerboard="0"
     inkscape:deskcolor="#d1d1d1"
     inkscape:document-units="mm"
     inkscape:zoom="1.5041929"
     inkscape:cx="153.57073"
     inkscape:cy="159.88641"
     inkscape:window-width="1920"
     inkscape:window-height="1017"
     inkscape:window-x="1912"
     inkscape:window-y="-8"
     inkscape:window-maximized="1"
     inkscape:current-layer="layer1" />
  <defs
     id="defs1">
    <inkscape:path-effect
       effect="powerclip"
       message=""
       id="path-effect2"
       is_visible="true"
       lpeversion="1"
       inverse="true"
       flatten="false"
       hide_clip="false" />
    <clipPath
       clipPathUnits="userSpaceOnUse"
       id="clipPath2">
      <circle
         style="display:none;fill:#ffffff;fill-opacity:1;fill-rule:evenodd;stroke-width:1.23844;stroke-miterlimit:54.8"
         id="circle2"
         cx="-4.2426409e-06"
         cy="-55.500877"
         r="23.547026"
         d="M 23.547021,-55.500877 A 23.547026,23.547026 0 0 1 -4.2426409e-6,-31.953852 23.547026,23.547026 0 0 1 -23.54703,-55.500877 23.547026,23.547026 0 0 1 -4.2426409e-6,-79.047903 23.547026,23.547026 0 0 1 23.547021,-55.500877 Z" />
      <path
         id="lpe_path-effect2"
         style="fill:#ffffff;fill-opacity:1;fill-rule:evenodd;stroke-width:1.23844;stroke-miterlimit:54.8"
         class="powerclip"
         d="m -44.245045,-99.745918 h 88.490082 v 88.490082 h -88.490082 z m 67.792066,44.245041 A 23.547026,23.547026 0 0 0 -4.2426409e-6,-79.047903 23.547026,23.547026 0 0 0 -23.54703,-55.500877 23.547026,23.547026 0 0 0 -4.2426409e-6,-31.953852 23.547026,23.547026 0 0 0 23.547021,-55.500877 Z" />
    </clipPath>
  </defs>
  <g
     inkscape:label="Layer 1"
     inkscape:groupmode="layer"
     id="layer1">
    <path
       style="fill:#ffffff;fill-rule:evenodd;stroke-width:2.06405;stroke-miterlimit:54.8"
       id="path1"
       transform="rotate(135)"
       clip-path="url(#clipPath2)"
       inkscape:path-effect="#path-effect2"
       sodipodi:type="arc"
       sodipodi:cx="-4.2426409e-06"
       sodipodi:cy="-55.500877"
       sodipodi:rx="39.245041"
       sodipodi:ry="39.245041"
       d="M 39.245037,-55.500877 A 39.245041,39.245041 0 0 1 -4.2426409e-6,-16.255836 39.245041,39.245041 0 0 1 -39.245045,-55.500877 39.245041,39.245041 0 0 1 -4.2426409e-6,-94.745918 39.245041,39.245041 0 0 1 39.245037,-55.500877 Z" />
    <rect
       style="fill:#ffffff;fill-opacity:1;fill-rule:evenodd;stroke-width:2.2631;stroke-miterlimit:54.8"
       id="rect1"
       width="19.62252"
       height="39.245041"
       x="-9.811265"
       y="-131.61009"
       transform="rotate(135)" />
  </g>
</svg>
